# xmcd
#
# Track frame offsets:
# 150
# 15492
# 32295
# 48815
# 65122
# 83455
# 99042
# 112825
# 129090
# 146812
#
# Disc length: 2193 seconds
#
# Revision: 1
# Processed by: cddbd v1.5PL3 Copyright (c) Steve Scherf et al.
# Submitted via: Easy CD Ripper v2.26
#
DISCID=68088f0a
DTITLE=BlackHawk - BlackHawk
DYEAR=1994
DGENRE=Country
TTITLE0=Goodby Says It All - BlackHawk
TTITLE1=Down In Flames - BlackHawk
TTITLE2=Every Once In A While - BlackHawk
TTITLE3=I Sure Can Smell The Rain - BlackHawk
TTITLE4=That's Just About Right - BlackHawk
TTITLE5=One More Heartache - BlackHawk
TTITLE6=Love Like This - BlackHawk
TTITLE7=Between Ragged And Wrong - BlackHawk
TTITLE8=Stone By Stone - BlackHawk
TTITLE9=Let 'Em Whirl - BlackHawk
EXTD=
EXTT0=
EXTT1=
EXTT2=
EXTT3=
EXTT4=
EXTT5=
EXTT6=
EXTT7=
EXTT8=
EXTT9=
PLAYORDER=
